<?xml version="1.0" standalone="yes"?>
<svg xmlns="http://www.w3.org/2000/svg" width="317" height="195">
<path style="fill:#ffffff; stroke:none;" d="M0 0L0 195L317 195L317 0L0 0z"/>
<path style="fill:#cd6155; stroke:none;" d="M36 184L148 184L182 184C188.239 184 194.988 184.777 201 183C184.278 142.02 170.758 99.5579 155.529 58C151.502 47.0091 147.585 35.9744 143.529 25C141.78 20.2707 140.51 13.9196 135.942 11.0895C128.603 6.54236 116.129 7.39659 108 8.75464C104.236 9.38345 100.315 10.0379 97.8148 13.2245C93.925 18.1825 92.3015 26.1079 90.2685 32C86.3445 43.3728 82.1271 54.6876 78.061 66C68.2314 93.3469 58.1573 120.599 48.4599 148C44.3431 159.632 37.8323 171.766 36 184z"/>
<path style="fill:#21618c; stroke:none;" d="M246 107C235.214 124.917 224.893 143.117 214.061 161C211.297 165.563 202.956 175.308 206.043 180.852C209.231 186.577 223.457 184 229 184L293 184C298.384 184 310.876 186.338 314.128 180.852C317.338 175.437 309.252 166.446 306.792 162.004C299.557 148.943 292.161 135.62 284.177 123C281.364 118.553 275.09 111.578 276.576 106C278.056 100.447 282.756 94.9904 285.576 90C292.24 78.2055 299.54 66.7854 306.222 55C308.781 50.4865 316.603 40.7226 310.682 36.0093C305.489 31.875 294.239 34 288 34L231 34C224.935 34 211.694 31.5218 207.698 37.3441C204.601 41.8555 211.777 51.1986 214.177 55C221.387 66.4194 227.89 78.3218 234.667 90C237.734 95.2839 240.864 103.636 246 107z"/>
<path style="fill:#602d27; stroke:none;" d="M74 76L75 77L74 76z"/>
<path style="fill:#1a5276; stroke:none;" d="M11 88C11 103.056 11.999 117.973 12 133C12.0003 137.478 10.8805 146.621 15.3171 149.427C20.8071 152.9 24.8901 149.285 28.1157 144.995C35.3715 135.346 42.6784 125.714 49.8457 116C52.1101 112.931 57.1665 108.143 57.2492 104.133C57.334 100.024 49.871 99.2625 47 98.3302C35.5884 94.6247 22.9729 88.9779 11 88z"/>
<path style="fill:#000000; stroke:none;" d="M200 183L201 184L200 183z"/>
<path style="fill:#585a59; stroke:none;" d="M36 184L37 185L36 184z"/>
<path style="fill:#8d9592; stroke:none;" d="M37 184C44.8884 187.31 57.4492 185 66 185C58.1116 181.69 45.5508 184 37 184M174 184C181.169 187.008 192.239 185 200 185C192.831 181.992 181.761 184 174 184z"/>
</svg>
